<?xml version="1.0" encoding="UTF-8"?>
 <svg xmlns="http://www.w3.org/2000/svg" id="Layer_1" version="1.1"
    viewBox="0 0 432 67.2">
    <defs>
        <style>
            .st0 {
                fill: #e74d3c;
            }

            .st1 {
                fill: #fff;
            }
        </style>
    </defs>
    <g>
        <path class="st1"
            d="M64.1,66.6V.5h22c5.2,0,9.8.9,13.7,2.6,3.9,1.7,7.2,4.1,9.8,7.1,2.6,3,4.6,6.5,5.9,10.5,1.3,4,2,8.3,2,12.8s-.7,9.6-2.2,13.7c-1.5,4.1-3.6,7.5-6.3,10.4-2.7,2.9-6,5.1-9.9,6.7-3.9,1.6-8.2,2.4-13,2.4h-22ZM112.8,33.5c0-4.2-.6-8-1.8-11.5-1.2-3.5-2.9-6.5-5.2-9.1-2.3-2.5-5-4.5-8.3-6-3.3-1.4-7.1-2.1-11.4-2.1h-17.2v57.6h17.2c4.3,0,8.2-.7,11.5-2.2,3.3-1.5,6.1-3.5,8.3-6.1,2.2-2.6,3.9-5.7,5.1-9.2,1.1-3.5,1.7-7.3,1.7-11.4Z">
        </path>
        <path class="st0" d="M119.8.5l25.2,60.2L170.1.5h5l-28,66.2h-4.4L114.7.5h5Z"></path>
        <path class="st1" d="M224.1,62.4v4.3h-44.1V.5h43.2v4.3h-38.5v26h33.6v4.1h-33.6v27.5h39.3Z"></path>
        <path class="st1" d="M241.8,9.4v57.2h-4.8V.5h3.6l46.4,58.3V.5h4.8v66.2h-4.4l-45.7-57.2Z"></path>
        <path class="st1"
            d="M347.6,11.5c-4.3-4.8-10.3-7.2-18.2-7.2s-11.2,1.2-14.1,3.7c-3,2.5-4.4,5.8-4.4,9.9s.4,3.9,1.1,5.3c.7,1.4,1.9,2.6,3.5,3.6,1.6,1,3.6,1.8,6,2.5,2.4.7,5.3,1.4,8.8,2.1,3.5.7,6.8,1.6,9.6,2.5,2.9.9,5.3,2,7.4,3.4,2,1.4,3.6,3,4.7,5,1.1,2,1.6,4.4,1.6,7.4s-.6,5.5-1.7,7.6c-1.2,2.2-2.8,4-4.8,5.5-2.1,1.5-4.6,2.6-7.5,3.3s-6.1,1.1-9.6,1.1c-10.3,0-19-3.3-26.2-9.9l2.5-3.8c2.8,2.9,6.2,5.2,10.3,6.9,4,1.7,8.6,2.6,13.6,2.6s10.3-1.1,13.6-3.2c3.3-2.1,4.9-5.3,4.9-9.6s-.4-4-1.3-5.5c-.9-1.5-2.2-2.8-3.9-4-1.7-1.1-3.9-2.1-6.5-2.9-2.6-.8-5.7-1.6-9.1-2.3-3.5-.7-6.7-1.5-9.4-2.4-2.7-.8-5-1.9-6.8-3.2-1.8-1.3-3.2-2.8-4.1-4.6-.9-1.8-1.4-4.1-1.4-6.8s.6-5.6,1.7-7.9c1.1-2.3,2.7-4.2,4.8-5.8,2.1-1.6,4.5-2.8,7.4-3.6,2.9-.8,6-1.2,9.5-1.2s8.1.6,11.5,1.9c3.4,1.3,6.4,3.2,9.1,5.8l-2.4,3.7Z">
        </path>
        <path class="st1" d="M365.5,66.6V.5h4.8v66.2h-4.8Z"></path>
        <path class="st1"
            d="M426,11.5c-4.3-4.8-10.3-7.2-18.2-7.2s-11.2,1.2-14.1,3.7c-3,2.5-4.4,5.8-4.4,9.9s.4,3.9,1.1,5.3c.7,1.4,1.9,2.6,3.5,3.6,1.6,1,3.6,1.8,6,2.5,2.4.7,5.3,1.4,8.8,2.1,3.5.7,6.8,1.6,9.6,2.5,2.9.9,5.3,2,7.4,3.4,2,1.4,3.6,3,4.7,5,1.1,2,1.6,4.4,1.6,7.4s-.6,5.5-1.7,7.6c-1.2,2.2-2.8,4-4.8,5.5-2.1,1.5-4.6,2.6-7.5,3.3s-6.1,1.1-9.6,1.1c-10.3,0-19-3.3-26.2-9.9l2.5-3.8c2.8,2.9,6.2,5.2,10.3,6.9,4,1.7,8.6,2.6,13.6,2.6s10.3-1.1,13.6-3.2c3.3-2.1,4.9-5.3,4.9-9.6s-.4-4-1.3-5.5c-.9-1.5-2.2-2.8-3.9-4-1.7-1.1-3.9-2.1-6.5-2.9-2.6-.8-5.7-1.6-9.1-2.3-3.5-.7-6.7-1.5-9.4-2.4-2.7-.8-5-1.9-6.8-3.2-1.8-1.3-3.2-2.8-4.1-4.6-.9-1.8-1.4-4.1-1.4-6.8s.6-5.6,1.7-7.9c1.1-2.3,2.7-4.2,4.8-5.8,2.1-1.6,4.5-2.8,7.4-3.6,2.9-.8,6-1.2,9.5-1.2s8.1.6,11.5,1.9c3.4,1.3,6.4,3.2,9.1,5.8l-2.4,3.7Z">
        </path>
    </g>
    <path class="st0" d="M55.4,66.2L30.2,6,5,66.2H0L28,0h4.4l28.1,66.2h-5Z"></path>
</svg>